<?xml version="1.0" standalone="no"?>
<!DOCTYPE svg PUBLIC "-//W3C//DTD SVG 20010904//EN"
 "http://www.w3.org/TR/2001/REC-SVG-20010904/DTD/svg10.dtd">
<svg version="1.0" xmlns="http://www.w3.org/2000/svg"
 width="1080.000000pt" height="1080.000000pt" viewBox="0 0 1080.000000 1080.000000"
 preserveAspectRatio="xMidYMid meet">
<metadata>
Created by potrace 1.14, written by Peter Selinger 2001-2017
</metadata>
<g transform="translate(0.000000,1080.000000) scale(0.100000,-0.100000)"
fill="#000000" stroke="none">
<path d="M949 9838 c5 -13 404 -927 886 -2033 482 -1105 1068 -2449 1302
-2985 234 -536 506 -1159 605 -1385 98 -225 260 -598 361 -827 l181 -418 98 0
c96 0 98 0 111 27 8 16 160 387 337 825 178 439 325 797 326 795 3 -2 845
-1932 1135 -2600 l194 -447 103 2 103 3 86 210 c217 536 1268 3130 1998 4930
1044 2575 1015 2503 1015 2510 0 3 -57 4 -126 3 l-125 -3 -1299 -3244 c-715
-1784 -1301 -3245 -1302 -3247 -3 -2 -1303 2960 -1319 3004 -3 10 77 222 193
507 110 270 260 639 333 820 74 182 246 607 383 945 137 338 432 1066 656
1617 223 551 406 1005 406 1008 0 3 -57 4 -126 3 l-126 -3 -921 -2302 c-507
-1266 -925 -2299 -928 -2295 -3 4 -310 702 -682 1552 -372 850 -685 1566 -697
1593 l-21 47 -469 0 c-259 0 -470 -2 -470 -5 0 -5 225 -523 935 -2150 139
-319 411 -941 603 -1382 l350 -802 -150 -376 c-83 -207 -154 -373 -158 -368
-8 7 -213 475 -1205 2743 -612 1398 -605 1383 -1432 3270 l-208 475 -472 3
-473 2 9 -22z"/>
<path d="M10588 291 c8 -4 13 -12 12 -17 -1 -5 3 -10 10 -12 13 -5 9 20 -5 30
-5 4 -14 8 -20 8 -5 0 -4 -4 3 -9z"/>
<path d="M10640 196 c0 -2 7 -6 15 -10 8 -3 15 -1 15 4 0 6 -7 10 -15 10 -8 0
-15 -2 -15 -4z"/>
<path d="M10680 152 c0 -12 -3 -21 -7 -21 -21 3 -26 -2 -13 -12 12 -9 10 -10
-9 -5 -15 3 -20 1 -14 -5 5 -5 21 -10 36 -11 19 -2 27 -8 27 -21 0 -10 4 -16
9 -13 5 4 7 -3 4 -14 -3 -11 -9 -23 -14 -26 -17 -10 -9 -20 21 -22 21 -2 33 3
37 15 6 15 7 15 14 -3 6 -15 8 -12 8 13 1 39 -8 65 -20 57 -5 -3 -7 -10 -4
-15 4 -5 -5 -4 -20 3 -14 6 -24 17 -21 24 3 8 1 16 -5 19 -5 4 -7 9 -5 13 2 4
-2 16 -10 27 -14 18 -14 18 -14 -3z"/>
<path d="M10662 23 c-10 -10 -10 -13 1 -13 8 0 20 6 26 13 8 10 7 14 -2 14 -7
0 -18 -6 -25 -14z"/>
</g>
</svg>
