<?xml version="1.0" standalone="no"?>
<!DOCTYPE svg PUBLIC "-//W3C//DTD SVG 20010904//EN"
 "http://www.w3.org/TR/2001/REC-SVG-20010904/DTD/svg10.dtd">
<svg version="1.0" xmlns="http://www.w3.org/2000/svg"
 width="177.000000pt" height="177.000000pt" viewBox="0 0 177.000000 177.000000"
 preserveAspectRatio="xMidYMid meet">
<metadata>
Created by potrace 1.14, written by Peter Selinger 2001-2017
</metadata>
<g transform="translate(0.000000,177.000000) scale(0.100000,-0.100000)"
fill="#000000" stroke="none">
<path d="M1159 1673 c-6 -16 -71 -187 -145 -381 -74 -194 -134 -357 -134 -362
0 -44 -34 19 -131 240 l-114 260 -82 0 c-46 0 -83 -1 -83 -3 0 -4 61 -146 145
-337 189 -431 176 -392 155 -445 l-12 -30 -36 75 c-19 41 -88 190 -152 330
-64 140 -159 346 -210 458 l-93 202 -79 0 c-43 0 -78 -4 -78 -8 0 -5 47 -112
105 -238 58 -126 188 -408 288 -627 153 -334 185 -397 201 -395 14 2 29 31 60
110 22 60 43 108 46 108 3 0 58 -118 121 -263 92 -211 118 -262 133 -262 16 0
46 66 174 380 130 323 362 891 379 933 3 8 -4 12 -20 12 -23 0 -36 -28 -237
-532 -117 -293 -219 -544 -226 -558 l-12 -25 -10 25 c-6 14 -58 134 -116 267
l-106 242 129 338 c71 186 143 373 160 416 37 92 37 97 11 97 -13 0 -24 -10
-31 -27z"/>
</g>
</svg>
